<?xml version="1.0" encoding="UTF-8"?>
<svg version="1.1" xmlns="http://www.w3.org/2000/svg" width="150" height="150">
<path d="M0 0 C49.5 0 99 0 150 0 C150 49.5 150 99 150 150 C100.5 150 51 150 0 150 C0 100.5 0 51 0 0 Z " fill="#FDFDFD" transform="translate(0,0)"/>
<path d="M0 0 C1.1446875 0.36738281 1.1446875 0.36738281 2.3125 0.7421875 C14.36418868 4.99794006 23.97994228 13.13020476 30.2734375 24.25 C36.68967516 37.75786876 37.81084272 50.8043694 33 65 C27.5025388 78.86699349 18.84157737 88.01960035 5.35546875 94.21484375 C-7.04610528 99.43949488 -19.94531707 99.37911501 -32.734375 95.3359375 C-37.7667559 93.27723622 -41.79881945 90.40615195 -46 87 C-47.051875 86.2575 -48.10375 85.515 -49.1875 84.75 C-55.80883036 78.27581032 -60.22955692 69.79314541 -63 61 C-63 60.34 -63 59.68 -63 59 C-56.07 59 -49.14 59 -42 59 C-39.525 63.455 -39.525 63.455 -37 68 C-34.27847764 70.89299854 -34.27847764 70.89299854 -31 73 C-30.484375 73.391875 -29.96875 73.78375 -29.4375 74.1875 C-22.73800109 78.49432073 -13.66169779 78.11554618 -6 77 C-2.29577905 75.80778637 0.90131294 74.36705261 4 72 C4.33 71.34 4.66 70.68 5 70 C4.4225 69.731875 3.845 69.46375 3.25 69.1875 C0.9674132 67.98280141 -0.9737942 66.59201885 -3 65 C-3.94875 65.495 -4.8975 65.99 -5.875 66.5 C-10.56340733 68.47007823 -14.98863743 68.83914835 -20 68 C-26.11391932 65.4516597 -30.34325133 61.39633478 -33.25 55.4375 C-34 53 -34 53 -34 49 C-34.56396484 49.02618408 -35.12792969 49.05236816 -35.70898438 49.0793457 C-38.30569725 49.18435201 -40.9019622 49.24864373 -43.5 49.3125 C-44.386875 49.35439453 -45.27375 49.39628906 -46.1875 49.43945312 C-52.68742866 49.55893711 -57.02714731 48.28475213 -62 44 C-66.20224273 38.99767581 -66.52061912 34.3775842 -66 28 C-64.02 28 -62.04 28 -60 28 C-59.74089844 27.28457031 -59.48179688 26.56914063 -59.21484375 25.83203125 C-54.31007092 14.3980753 -45.06783257 6.296926 -33.6875 1.625 C-32.13318533 1.06027447 -30.57014221 0.51909775 -29 0 C-28.06542969 -0.35835937 -27.13085938 -0.71671875 -26.16796875 -1.0859375 C-17.95782879 -3.45483115 -8.04634783 -2.72757554 0 0 Z " fill="#FBF9F6" transform="translate(90,27)"/>
<path d="M0 0 C1.1446875 0.36738281 1.1446875 0.36738281 2.3125 0.7421875 C14.36418868 4.99794006 23.97994228 13.13020476 30.2734375 24.25 C36.68967516 37.75786876 37.81084272 50.8043694 33 65 C27.5025388 78.86699349 18.84157737 88.01960035 5.35546875 94.21484375 C-7.04610528 99.43949488 -19.94531707 99.37911501 -32.734375 95.3359375 C-37.7667559 93.27723622 -41.79881945 90.40615195 -46 87 C-47.051875 86.2575 -48.10375 85.515 -49.1875 84.75 C-55.80883036 78.27581032 -60.22955692 69.79314541 -63 61 C-63 60.34 -63 59.68 -63 59 C-56.07 59 -49.14 59 -42 59 C-39.525 63.455 -39.525 63.455 -37 68 C-34.27847764 70.89299854 -34.27847764 70.89299854 -31 73 C-30.484375 73.391875 -29.96875 73.78375 -29.4375 74.1875 C-22.73800109 78.49432073 -13.66169779 78.11554618 -6 77 C-2.29577905 75.80778637 0.90131294 74.36705261 4 72 C4.33 71.34 4.66 70.68 5 70 C4.4225 69.731875 3.845 69.46375 3.25 69.1875 C0.9674132 67.98280141 -0.9737942 66.59201885 -3 65 C-3.94875 65.495 -4.8975 65.99 -5.875 66.5 C-10.56340733 68.47007823 -14.98863743 68.83914835 -20 68 C-26.11391932 65.4516597 -30.34325133 61.39633478 -33.25 55.4375 C-34 53 -34 53 -34 49 C-34.56396484 49.02618408 -35.12792969 49.05236816 -35.70898438 49.0793457 C-38.30569725 49.18435201 -40.9019622 49.24864373 -43.5 49.3125 C-44.386875 49.35439453 -45.27375 49.39628906 -46.1875 49.43945312 C-52.68742866 49.55893711 -57.02714731 48.28475213 -62 44 C-66.20224273 38.99767581 -66.52061912 34.3775842 -66 28 C-64.02 28 -62.04 28 -60 28 C-59.74089844 27.28457031 -59.48179688 26.56914063 -59.21484375 25.83203125 C-54.31007092 14.3980753 -45.06783257 6.296926 -33.6875 1.625 C-32.13318533 1.06027447 -30.57014221 0.51909775 -29 0 C-28.06542969 -0.35835937 -27.13085938 -0.71671875 -26.16796875 -1.0859375 C-17.95782879 -3.45483115 -8.04634783 -2.72757554 0 0 Z M-50.4375 20.06640625 C-52.43472649 22.53797403 -53.37892607 24.89463033 -54 28 C-47.25153511 28.96087488 -47.25153511 28.96087488 -41.21484375 26.6171875 C-40.26488312 25.3946755 -39.34474541 24.14850355 -38.453125 22.8828125 C-34.5492348 17.82454616 -28.13211463 15.08795582 -22 14 C-10.06637162 13.33702065 -0.69535405 14.59111884 9 22 C9.99 23.98 9.99 23.98 11 26 C7.04 29.96 3.08 33.92 -1 38 C-2.2367749 37.1850708 -3.4735498 36.3701416 -4.74780273 35.53051758 C-10.51116642 32.34457099 -15.56981359 32.35565697 -22.03515625 32.51171875 C-23.15442001 32.51879349 -24.27368378 32.52586823 -25.42686462 32.53315735 C-28.97278013 32.56096134 -32.51706842 32.62367693 -36.0625 32.6875 C-38.47849269 32.7126008 -40.89451033 32.73541083 -43.31054688 32.75585938 C-49.20757869 32.81074203 -55.10367305 32.8942279 -61 33 C-60.27655612 37.84463539 -58.70029011 39.75096478 -55 43 C-52.39048764 44.30475618 -50.47298715 44.11301572 -47.5546875 44.09765625 C-46.47832031 44.09443359 -45.40195312 44.09121094 -44.29296875 44.08789062 C-42.60107422 44.07532227 -42.60107422 44.07532227 -40.875 44.0625 C-39.73933594 44.05798828 -38.60367188 44.05347656 -37.43359375 44.04882812 C-34.62234362 44.03701615 -31.8111977 44.02054507 -29 44 C-29.0304541 44.91579834 -29.0304541 44.91579834 -29.06152344 45.85009766 C-29.07731445 46.65495605 -29.09310547 47.45981445 -29.109375 48.2890625 C-29.1398291 49.48329834 -29.1398291 49.48329834 -29.17089844 50.70166016 C-28.83712619 55.19042006 -26.18836595 57.95567841 -22.9375 60.8125 C-18.89118202 63.29250135 -14.62990406 63.68526094 -10 63 C-7.97048465 61.71203834 -5.96498322 60.38442 -4 59 C-0.23559734 59.06490349 1.7373659 61.42320697 4.26171875 63.99804688 C4.75285156 64.51431641 5.24398437 65.03058594 5.75 65.5625 C6.25660156 66.08263672 6.76320313 66.60277344 7.28515625 67.13867188 C8.53034405 68.41910084 9.76611502 69.70867554 11 71 C6.50021817 77.18720002 1.48129195 80.336534 -6 82 C-17.1329013 82.8794992 -26.64272175 82.95195908 -36 76 C-39.30137184 72.91161989 -42.00473177 69.63018072 -44.359375 65.7734375 C-45.88644812 63.75542992 -45.88644812 63.75542992 -48.48046875 63.609375 C-49.37378906 63.65578125 -50.26710938 63.7021875 -51.1875 63.75 C-52.53908203 63.80414063 -52.53908203 63.80414063 -53.91796875 63.859375 C-54.60503906 63.90578125 -55.29210937 63.9521875 -56 64 C-54.57183653 69.71265389 -51.70995819 73.56698731 -48 78 C-47.49597656 78.61230469 -46.99195313 79.22460938 -46.47265625 79.85546875 C-39.08553257 88.03729522 -28.4443417 92.36956271 -17.6328125 93.28515625 C-5.01536055 93.78830617 5.55908813 90.48223207 15 82 C15.61488281 81.46503906 16.22976562 80.93007812 16.86328125 80.37890625 C24.42131751 73.37113388 29.90676944 63.37591651 30.43359375 52.9765625 C30.45701792 51.19286166 30.4577351 49.40873987 30.4375 47.625 C30.42992676 46.69469971 30.42235352 45.76439941 30.41455078 44.8059082 C30.15466601 34.01120551 26.77810846 27.23715633 20 19 C19.360625 18.113125 18.72125 17.22625 18.0625 16.3125 C11.72671153 9.20873717 3.79289277 6.8720504 -5 4 C-5.99 3.67 -6.98 3.34 -8 3 C-25.58980855 1.57126721 -38.3340812 7.54815253 -50.4375 20.06640625 Z " fill="#A4947F" transform="translate(90,27)"/>
<path d="M0 0 C2.78770753 0.25649526 5.57996746 0.40834359 8.375 0.5625 C9.11105469 0.60568359 9.84710938 0.64886719 10.60546875 0.69335938 C12.40348068 0.79843799 14.20171958 0.89962093 16 1 C16 1.33 16 1.66 16 2 C14.58460937 2.03867187 14.58460937 2.03867187 13.140625 2.078125 C-2.97215672 2.78993463 -15.22575559 7.43846455 -26.59375 19.2890625 C-28.54198881 21.65941972 -29.82907626 24.17600745 -31 27 C-24.18127651 27.25696992 -24.18127651 27.25696992 -18.21484375 24.55078125 C-17.26873804 23.33586556 -16.34838761 22.10050939 -15.453125 20.84765625 C-11.50534559 15.8280335 -5.13605556 13.08865502 1 12 C13.31446396 11.31586311 21.79758681 12.99030003 32 20 C33.02976458 20.96932188 34.04283414 21.95892675 35 23 C33.38989473 27.07376031 30.46177729 29.76507069 27.375 32.75 C26.859375 33.25660156 26.34375 33.76320312 25.8125 34.28515625 C24.54616661 35.52803902 23.2736856 36.76465276 22 38 C21.48993912 37.64726517 20.97987823 37.29453033 20.45436096 36.93110657 C13.92029501 32.81596839 8.57791508 32.26496462 0.96484375 32.29296875 C-0.15442001 32.27784744 -1.27368378 32.26272614 -2.42686462 32.24714661 C-5.97228422 32.2044475 -9.51684946 32.19544827 -13.0625 32.1875 C-15.47853806 32.16434205 -17.894556 32.13897404 -20.31054688 32.11132812 C-26.20703952 32.0486514 -32.1032007 32.01357637 -38 32 C-37.54625 33.093125 -37.0925 34.18625 -36.625 35.3125 C-36.24214844 36.23482422 -36.24214844 36.23482422 -35.8515625 37.17578125 C-34.93193308 39.26533932 -34.93193308 39.26533932 -33 42 C-35.75 42.375 -35.75 42.375 -39 42 C-42.366975 38.54442039 -43.23517488 35.81715043 -43.25 31.125 C-43.18641991 29.74894513 -43.10985087 28.37313591 -43 27 C-41.02 27 -39.04 27 -37 27 C-36.74089844 26.28457031 -36.48179688 25.56914063 -36.21484375 24.83203125 C-30.88543492 12.40816822 -20.62537838 4.50376263 -8.38671875 -0.50390625 C-5.32302922 -1.14071242 -3.07044805 -0.59404073 0 0 Z " fill="#A2917C" transform="translate(67,28)"/>
<path d="M0 0 C-1.55194754 3.32759923 -3.30621949 5.48580485 -6 8 C-7.19496094 7.51917969 -8.38992187 7.03835937 -9.62109375 6.54296875 C-16.00450347 4.41516551 -22.38843145 4.43668522 -29.0625 4.3125 C-30.30966797 4.27833984 -31.55683594 4.24417969 -32.84179688 4.20898438 C-35.89444127 4.12711269 -38.94682034 4.05776372 -42 4 C-29.4967305 -8.56476099 -15.28565748 -9.40655845 0 0 Z " fill="#FCFBF6" transform="translate(95,51)"/>
<path d="M0 0 C3 1 3 1 4.6875 4.25 C7.79575052 13.42673964 6.4676786 23.14214741 3 32 C2.67 32.66 2.34 33.32 2 34 C1.01 34 0.02 34 -1 34 C-2.06679718 31.22632733 -2.03923904 30.11229383 -1.0390625 27.25 C1.07570151 20.63539979 0.77510822 13.03771714 -1.125 6.375 C-1.41375 5.26125 -1.7025 4.1475 -2 3 C-1.34 2.01 -0.68 1.02 0 0 Z " fill="#A3927B" transform="translate(105,58)"/>
<path d="M0 0 C6.27 0 12.54 0 19 0 C17.02 0.99 17.02 0.99 15 2 C14.67 2.33 14.34 2.66 14 3 C14 3.33 14 3.66 14 4 C11.36 4 8.72 4 6 4 C6.495 4.928125 6.99 5.85625 7.5 6.8125 C9 10 9 10 9 13 C6.75 13 6.75 13 4 12 C1.19020589 8.07706062 0 4.83245843 0 0 Z " fill="#A2917A" transform="translate(28,87)"/>
<path d="M0 0 C0.99 0.33 1.98 0.66 3 1 C3.054138 3.24973447 3.09285491 5.49984383 3.125 7.75 C3.14820312 9.00296875 3.17140625 10.2559375 3.1953125 11.546875 C3.01537302 14.72820492 2.68998582 16.36521896 1 19 C0.67 18.01 0.34 17.02 0 16 C-0.66 16.33 -1.32 16.66 -2 17 C-1.85978195 14.35375716 -1.71310224 11.70815422 -1.5625 9.0625 C-1.52318359 8.30775391 -1.48386719 7.55300781 -1.44335938 6.77539062 C-1.11328125 1.11328125 -1.11328125 1.11328125 0 0 Z " fill="#9E8C75" transform="translate(122,69)"/>
<path d="M0 0 C6.13929569 0.36835774 8.81670353 1.71710123 13 6 C13.875 8.3125 13.875 8.3125 14 10 C11 11 11 11 9.17578125 10.109375 C8.56089844 9.66078125 7.94601563 9.2121875 7.3125 8.75 C6.68988281 8.31171875 6.06726563 7.8734375 5.42578125 7.421875 C4.95527344 6.95265625 4.48476562 6.4834375 4 6 C4 5.01 4 4.02 4 3 C2.68 2.67 1.36 2.34 0 2 C0 1.34 0 0.68 0 0 Z " fill="#9F8C74" transform="translate(96,32)"/>
<path d="M0 0 C3.96 0 7.92 0 12 0 C12.33 0.99 12.66 1.98 13 3 C11.12175109 4.87824891 7.96064724 4.39102397 5.4375 4.5625 C4.23996094 4.64628906 3.04242188 4.73007812 1.80859375 4.81640625 C0.88175781 4.87699219 -0.04507813 4.93757813 -1 5 C-0.67 3.35 -0.34 1.7 0 0 Z " fill="#9E8D77" transform="translate(68,40)"/>
<path d="M0 0 C1.73056641 -0.02513672 1.73056641 -0.02513672 3.49609375 -0.05078125 C6.5625 0.3125 6.5625 0.3125 8.47265625 1.83203125 C8.83230469 2.32058594 9.19195312 2.80914062 9.5625 3.3125 C7.63671745 5.23828255 4.24214592 4.48693944 1.6875 4.5 C0.43195313 4.51417969 -0.82359375 4.52835937 -2.1171875 4.54296875 C-5.4375 4.3125 -5.4375 4.3125 -8.4375 2.3125 C-5.65940605 -0.46559395 -3.86994797 0.01294297 0 0 Z " fill="#9C8D74" transform="translate(75.4375,105.6875)"/>
<path d="M0 0 C2.64 0.33 5.28 0.66 8 1 C8.33 2.32 8.66 3.64 9 5 C7.125 6.0625 7.125 6.0625 5 7 C4.34 6.67 3.68 6.34 3 6 C1.12943209 5.7724985 -0.74685958 5.59037189 -2.625 5.4375 C-4.12933594 5.31181641 -4.12933594 5.31181641 -5.6640625 5.18359375 C-6.43492188 5.12300781 -7.20578125 5.06242187 -8 5 C-8 4.67 -8 4.34 -8 4 C-5.36 3.67 -2.72 3.34 0 3 C0 2.01 0 1.02 0 0 Z " fill="#A89784" transform="translate(80,40)"/>
<path d="M0 0 C0.85298376 3.67387495 1.10789471 7.0447393 1.0625 10.8125 C1.05347656 11.78832031 1.04445313 12.76414062 1.03515625 13.76953125 C1.02355469 14.50558594 1.01195313 15.24164063 1 16 C0.67 16 0.34 16 0 16 C-0.04898438 15.36191406 -0.09796875 14.72382812 -0.1484375 14.06640625 C-0.22320312 13.24011719 -0.29796875 12.41382812 -0.375 11.5625 C-0.47941406 10.32693359 -0.47941406 10.32693359 -0.5859375 9.06640625 C-0.79089844 8.04353516 -0.79089844 8.04353516 -1 7 C-1.66 6.67 -2.32 6.34 -3 6 C-3.33 9.3 -3.66 12.6 -4 16 C-4.33 16 -4.66 16 -5 16 C-5.0810206 13.89646505 -5.13919907 11.79204048 -5.1875 9.6875 C-5.22230469 8.51574219 -5.25710937 7.34398438 -5.29296875 6.13671875 C-5 3 -5 3 -3.61328125 1.08203125 C-2 0 -2 0 0 0 Z " fill="#B8AA97" transform="translate(125,64)"/>
<path d="M0 0 C0.8971875 0.309375 0.8971875 0.309375 1.8125 0.625 C0.8225 0.955 -0.1675 1.285 -1.1875 1.625 C-0.8575 2.615 -0.5275 3.605 -0.1875 4.625 C-1.375 6.1875 -1.375 6.1875 -3.1875 7.625 C-5.875 7.3125 -5.875 7.3125 -8.1875 6.625 C-4.13461538 -0.70879121 -4.13461538 -0.70879121 0 0 Z " fill="#9F8E77" transform="translate(49.1875,34.375)"/>
<path d="M0 0 C6.27 0 12.54 0 19 0 C17.02 0.99 17.02 0.99 15 2 C14.67 2.33 14.34 2.66 14 3 C14 3.33 14 3.66 14 4 C12.02 4 10.04 4 8 4 C8 3.34 8 2.68 8 2 C5.36 2 2.72 2 0 2 C0 1.34 0 0.68 0 0 Z " fill="#9B8A71" transform="translate(28,87)"/>
<path d="M0 0 C0 1.32 0 2.64 0 4 C0.66 4.33 1.32 4.66 2 5 C0.02 5.33 -1.96 5.66 -4 6 C-4 5.34 -4 4.68 -4 4 C-5.32 3.34 -6.64 2.68 -8 2 C-5.09399739 0.74335022 -3.20395416 0 0 0 Z " fill="#A89A85" transform="translate(67,41)"/>
<path d="M0 0 C0.66 0.66 1.32 1.32 2 2 C1.2884375 2.6496875 1.2884375 2.6496875 0.5625 3.3125 C-1.23686957 5.02309613 -1.23686957 5.02309613 -2 8 C-4.97 7.505 -4.97 7.505 -8 7 C-7.34 6.67 -6.68 6.34 -6 6 C-5.71125 5.360625 -5.4225 4.72125 -5.125 4.0625 C-3.77090236 1.57998766 -2.57821507 1.03128603 0 0 Z " fill="#A99581" transform="translate(91,56)"/>
<path d="M0 0 C0.99 0.33 1.98 0.66 3 1 C2.649375 1.5775 2.29875 2.155 1.9375 2.75 C0.82843626 5.41175298 1.28197722 6.30741458 2 9 C1.34 9.66 0.68 10.32 0 11 C-1.7578125 5.04296875 -1.7578125 5.04296875 -2 3 C-1.34 2.01 -0.68 1.02 0 0 Z " fill="#A59A86" transform="translate(105,58)"/>
<path d="M0 0 C0.99 0.33 1.98 0.66 3 1 C1.25 6.75 1.25 6.75 -1 9 C-1.625 6.1875 -1.625 6.1875 -2 3 C-1.34 2.01 -0.68 1.02 0 0 Z " fill="#A08E79" transform="translate(120,89)"/>
<path d="M0 0 C2.64 0.66 5.28 1.32 8 2 C7.67 2.66 7.34 3.32 7 4 C4.36 4 1.72 4 -1 4 C-0.67 2.68 -0.34 1.36 0 0 Z " fill="#9E8B76" transform="translate(72,90)"/>
<path d="M0 0 C0.33 0 0.66 0 1 0 C0.125 6.75 0.125 6.75 -1 9 C-1.99 9 -2.98 9 -4 9 C-4.33 7.68 -4.66 6.36 -5 5 C-4.360625 4.731875 -3.72125 4.46375 -3.0625 4.1875 C-0.66868314 3.11332248 -0.66868314 3.11332248 0 0 Z " fill="#9B8E79" transform="translate(108,83)"/>
<path d="M0 0 C1.32 0.33 2.64 0.66 4 1 C4 2.32 4 3.64 4 5 C2.35 5 0.7 5 -1 5 C-1.33 4.01 -1.66 3.02 -2 2 C-1.34 2 -0.68 2 0 2 C0 1.34 0 0.68 0 0 Z " fill="#A08F77" transform="translate(60,102)"/>
<path d="M0 0 C3.125 0.375 3.125 0.375 6 1 C6 1.66 6 2.32 6 3 C3.125 3.625 3.125 3.625 0 4 C-0.66 3.34 -1.32 2.68 -2 2 C-1.34 1.34 -0.68 0.68 0 0 Z " fill="#A08E75" transform="translate(86,104)"/>
<path d="M0 0 C0.66 0.33 1.32 0.66 2 1 C1.34 2.98 0.68 4.96 0 7 C-0.99 7 -1.98 7 -3 7 C-1.125 1.125 -1.125 1.125 0 0 Z " fill="#F4EEE0" transform="translate(39,48)"/>
<path d="M0 0 C0.99 0.33 1.98 0.66 3 1 C3.6875 3.0625 3.6875 3.0625 4 5 C3.01 5.33 2.02 5.66 1 6 C-0.0625 4.125 -0.0625 4.125 -1 2 C-0.67 1.34 -0.34 0.68 0 0 Z " fill="#9B8B76" transform="translate(106,37)"/>
<path d="M0 0 C0.99 0.99 1.98 1.98 3 3 C2.34 4.32 1.68 5.64 1 7 C-0.65 6.01 -2.3 5.02 -4 4 C-3.34 3.67 -2.68 3.34 -2 3 C-1.34 3.33 -0.68 3.66 0 4 C0 2.68 0 1.36 0 0 Z " fill="#AA9A88" transform="translate(104,34)"/>
<path d="M0 0 C1.32 0 2.64 0 4 0 C3.6875 2.375 3.6875 2.375 3 5 C2.01 5.66 1.02 6.32 0 7 C0.185625 6.21625 0.37125 5.4325 0.5625 4.625 C1.25962266 2.02910225 1.25962266 2.02910225 0 0 Z " fill="#9D8D7A" transform="translate(112,101)"/>
<path d="M0 0 C1.65 0.33 3.3 0.66 5 1 C4.67 1.99 4.34 2.98 4 4 C2.35 3.67 0.7 3.34 -1 3 C-0.67 2.01 -0.34 1.02 0 0 Z " fill="#9C8B73" transform="translate(58,44)"/>
</svg>
